{"title":"Blackout.2013.WEB-DL.x264.AC3 - BiTo","uid":8751972,"size":846561128,"categoryP":"video","categoryS":"movies","magnet":"?xt=urn:btih:ced516979fa2da961bd346d062860f38eb3283cd&amp;dn=Blackout.2013.WEB-DL.x264.AC3+-+BiTo&amp;tr=udp%3A%2F%2Ftracker.openbittorrent.com%3A80&amp;tr=udp%3A%2F%2Fopen.demonii.com%3A1337&amp;tr=udp%3A%2F%2Ftracker.coppersurfer.tk%3A6969&amp;tr=udp%3A%2F%2Fexodus.desync.com%3A6969","seeders":1,"leechers":0,"uploader":"xxxlavalxxx","files":-1,"time":1375051592,"description":"\n &lt;a href=&quot;\nhttp://www.imdb.com/title/tt2251227/&quot; rel=&quot;nofollow&quot; target=&quot;_NEW&quot;&gt;\nhttp://www.imdb.com/title/tt2251227/&lt;/a&gt;\n\n\n\nA young attorney's life is turned upside when he wakes to find a dead woman in his apartment. \n\n\n\nDirector:\n Matthew K. Hacker \n\nWriters:\n Pia Cook (story), Pia Cook\n\nStars:\n Timothy Woodward Jr., Bill Oberst Jr., Robert Covington\n\nGenres:\n  Thriller \n\n\n\nSource: 720WEB-DL PHD THX\n Sample: Yes\n Audio: AC3 2CH@ English\n Codec: x264\n Container: MKV\n Chapters: Yes\n\n Video\n ID                                       : 1\n Format                                   : AVC\n Format/Info                              : Advanced Video Codec\n Format profile                           : &lt;a class=&quot;__cf_email__&quot; href=&quot;/cdn-cgi/l/email-protection&quot; data-cfemail=&quot;5b163a32351b1768756b&quot;&gt;[email&amp;#160;protected]&lt;/a&gt;&lt;script cf-hash='f9e31' type=&quot;text/javascript&quot;&gt;\n/* &lt;![CDATA[ */!function(){try{var t=&quot;currentScript&quot;in document?document.currentScript:function(){for(var t=document.getElementsByTagName(&quot;script&quot;),e=t.length;e--;)if(t[e].getAttribute(&quot;cf-hash&quot;))return t[e]}();if(t&amp;&amp;t.previousSibling){var e,r,n,i,c=t.previousSibling,a=c.getAttribute(&quot;data-cfemail&quot;);if(a){for(e=&quot;&quot;,r=parseInt(a.substr(0,2),16),n=2;a.length-n;n+=2)i=parseInt(a.substr(n,2),16)^r,e+=String.fromCharCode(i);e=document.createTextNode(e),c.parentNode.replaceChild(e,c)}}}catch(u){}}();/* ]]&gt; */&lt;/script&gt;\n Format settings, CABAC                   : Yes\n Format settings, ReFrames                : 4 frames\n Codec ID                                 : V_MPEG4/ISO/AVC\n Duration                                 : 1h 19mn\n Bit rate                                 : 1 139 Kbps\n Nominal bit rate                         : 1 200 Kbps\n Width                                    : 720 pixels\n Height                                   : 304 pixels\n Display aspect ratio                     : 2.40:1\n Original display aspect ratio            : 2.40:1\n Frame rate mode                          : Constant\n Frame rate                               : 23.976 fps\n Color space                              : YUV\n Chroma subsampling                       : 4:2:0\n Bit depth                                : 8 bits\n Scan type                                : Progressive\n Bits/(Pixel*Frame)                       : 0.217\n Stream size                              : 648 MiB (82%)\n Writing library                          : x264 core 120\n\n\n Audio\n ID                                       : 2\n Format                                   : AC-3\n Format/Info                              : Audio Coding 3\n Mode extension                           : CM (complete main)\n Format settings, Endianness              : Big\n Codec ID                                 : A_AC3\n Duration                                 : 1h 19mn\n Bit rate mode                            : Constant\n Bit rate                                 : 224 Kbps\n Channel(s)                               : 2 channels\n Channel positions                        : Front: L R\n Sampling rate                            : 48.0 KHz\n Bit depth                                : 16 bits\n Compression mode                         : Lossy\n Stream size                              : 127 MiB (16%)\n Language                                 : English\n Default                                  : Yes\n Forced                                   : No\n\n\n\n\n\n\nscreens\n\n\n    &lt;a href=&quot;\thttp://addpix.net/viewer.php?file=03457256920744341041.jpg&quot; rel=&quot;nofollow&quot; target=&quot;_NEW&quot;&gt;\thttp://addpix.net/viewer.php?file=03457256920744341041.jpg&lt;/a&gt;\n    &lt;a href=&quot;\thttp://addpix.net/viewer.php?file=59088259038809487067.jpg&quot; rel=&quot;nofollow&quot; target=&quot;_NEW&quot;&gt;\thttp://addpix.net/viewer.php?file=59088259038809487067.jpg&lt;/a&gt;\n    &lt;a href=&quot;\thttp://addpix.net/viewer.php?file=35187059320502887053.jpg&quot; rel=&quot;nofollow&quot; target=&quot;_NEW&quot;&gt;\thttp://addpix.net/viewer.php?file=35187059320502887053.jpg&lt;/a&gt;\n    &lt;a href=&quot;\thttp://addpix.net/viewer.php?file=53170536261719698529.jpg&quot; rel=&quot;nofollow&quot; target=&quot;_NEW&quot;&gt;\thttp://addpix.net/viewer.php?file=53170536261719698529.jpg&lt;/a&gt;\n","torrent":{"xt":"urn:btih:ced516979fa2da961bd346d062860f38eb3283cd","amp;dn":"Blackout.2013.WEB-DL.x264.AC3+-+BiTo","amp;tr":["udp%3A%2F%2Ftracker.openbittorrent.com%3A80","udp%3A%2F%2Fopen.demonii.com%3A1337","udp%3A%2F%2Ftracker.coppersurfer.tk%3A6969","udp%3A%2F%2Fexodus.desync.com%3A6969"],"infoHash":"ced516979fa2da961bd346d062860f38eb3283cd","infoHashBuffer":{"type":"Buffer","data":[206,213,22,151,159,162,218,150,27,211,70,208,98,134,15,56,235,50,131,205]},"announce":[],"urlList":[]}}